#!OML:ASF H:\Dans Jumps\Project 1\Capture day 1\Session 1\subject.ASF
:FULLY-SPECIFIED
:DEGREES
586
root 0.435636 17.7433 3.96195 8.04155 -1.2098 -1.91949
lowerback -4.92848 0.0851946 0.404189
upperback 0.938383 0.0378788 1.37617
thorax 3.73158 0.0122623 1.19545
lowerneck -13.4394 -0.55595 -2.68504
upperneck 25.1605 -0.606322 1.80499
head 10.2567 -0.324277 1.01829
rclavicle 5.86415e-015 -3.97569e-015
rhumerus -27.31 -19.8492 -78.1471
rradius 23.0078
rwrist 35.7327
rhand -21.6891 -27.7827
rfingers 7.12502
rthumb 4.70901 -57.7104
lclavicle 5.86415e-015 -3.97569e-015
lhumerus -25.7127 -0.598683 87.7598
lradius 23.2209
lwrist 6.97802
lhand -25.5098 -4.94373
lfingers 7.12502
lthumb 1.01919 25.0336
rfemur -12.1836 -2.56387 19.8865
rtibia 19.1476
rfoot -13.0105 1.73404
rtoes 20.3059
lfemur -10.4069 6.63378 -17.4286
ltibia 16.6578
lfoot -9.53479 8.87481
ltoes 1.66191
587
root 0.43578 17.7433 3.95947 8.03177 -1.21355 -1.92658
lowerback -4.92786 0.0877018 0.411286
upperback 0.931708 0.0406055 1.3837
thorax 3.72428 0.0137114 1.19943
lowerneck -13.4128 -0.554284 -2.68309
upperneck 25.0559 -0.597578 1.78018
head 10.2133 -0.322612 1.00951
rclavicle -2.38542e-015 8.15017e-015
rhumerus -27.2699 -19.8257 -78.1497
rradius 22.9985
rwrist 35.7359
rhand -21.7097 -27.7691
rfingers 7.12502
rthumb 4.68912 -57.6972
lclavicle -2.38542e-015 8.15017e-015
lhumerus -25.6698 -0.66894 87.7724
lradius 23.3253
lwrist 7.11297
lhand -25.6247 -5.13619
lfingers 7.12502
lthumb 0.908188 24.8416
rfemur -12.1788 -2.55392 19.8935
rtibia 19.1401
rfoot -12.9997 1.72849
rtoes 20.3098
lfemur -10.4108 6.63032 -17.4212
ltibia 16.6677
lfoot -9.52809 8.88112
ltoes 1.66347
588
root 0.435828 17.7434 3.95694 8.02365 -1.21688 -1.9312
lowerback -4.92735 0.0906924 0.414835
upperback 0.923414 0.0442513 1.39048
thorax 3.71536 0.0155544 1.20469
lowerneck -13.385 -0.551228 -2.67714
upperneck 24.9492 -0.587756 1.75476
head 10.1689 -0.32012 0.999983
rclavicle -1.73937e-015 6.95746e-015
rhumerus -27.2363 -19.8013 -78.1499
rradius 22.9916
rwrist 35.7321
rhand -21.719 -27.7665
rfingers 7.12502
rthumb 4.6801 -57.6948
lclavicle -1.73937e-015 6.95746e-015
lhumerus -25.6284 -0.745389 87.7863
lradius 23.4203
lwrist 7.23316
lhand -25.7083 -5.26801
lfingers 7.12502
lthumb 0.827455 24.7101
rfemur -12.1766 -2.54074 19.8983
rtibia 19.1344
rfoot -12.9905 1.71857
rtoes 20.3104
lfemur -10.416 6.62414 -17.4161
ltibia 16.6762
lfoot -9.52202 8.88818
ltoes 1.67764
589
root 0.435775 17.7435 3.95441 8.01651 -1.22022 -1.93618
lowerback -4.92579 0.0943517 0.41796
upperback 0.913262 0.0488613 1.39717
thorax 3.70389 0.0178762 1.21016
lowerneck -13.3552 -0.547357 -2.67292
upperneck 24.8422 -0.578037 1.73532
head 10.1242 -0.317133 0.992863
rclavicle -3.05631e-015 -3.97569e-016
rhumerus -27.2081 -19.7804 -78.1463
rradius 22.9825
rwrist 35.7282
rhand -21.7179 -27.7683
rfingers 7.12502
rthumb 4.68116 -57.6966
lclavicle -3.05631e-015 -3.97569e-016
lhumerus -25.5892 -0.829758 87.8014
lradius 23.5051
lwrist 7.33914
lhand -25.7601 -5.31642
lfingers 7.12502
lthumb 0.777485 24.6619
rfemur -12.1763 -2.52398 19.9038
rtibia 19.1302
rfoot -12.9821 1.7045
rtoes 20.3213
lfemur -10.4221 6.61881 -17.4102
ltibia 16.6843
lfoot -9.51406 8.89348
ltoes 1.67564
590
root 0.435676 17.7435 3.95198 8.00876 -1.22581 -1.93904
lowerback -4.92347 0.0985446 0.418699
upperback 0.90272 0.0543841 1.40292
thorax 3.69157 0.0206134 1.21606
lowerneck -13.3248 -0.542631 -2.67308
upperneck 24.7359 -0.568195 1.72386
head 10.0797 -0.313569 0.989337
rclavicle -8.19987e-016 -5.76476e-015
rhumerus -27.1839 -19.7604 -78.1407
rradius 22.974
rwrist 35.7251
rhand -21.7052 -27.7727
rfingers 7.12502
rthumb 4.69345 -57.7007
lclavicle -8.19987e-016 -5.76476e-015
lhumerus -25.5513 -0.91376 87.8156
lradius 23.5795
lwrist 7.42742
lhand -25.7872 -5.30365
lfingers 7.12502
lthumb 0.751311 24.6748
rfemur -12.1767 -2.50797 19.907
rtibia 19.1283
rfoot -12.9746 1.69179
rtoes 20.3297
lfemur -10.4258 6.61448 -17.4064
ltibia 16.691
lfoot -9.50574 8.90011
ltoes 1.6664
591
root 0.435607 17.7436 3.94969 8.00138 -1.23205 -1.93825
lowerback -4.92033 0.10257 0.416403
upperback 0.890871 0.0599604 1.40712
thorax 3.67744 0.0233354 1.22206
lowerneck -13.2955 -0.538274 -2.67909
upperneck 24.6324 -0.559935 1.72179
head 10.0365 -0.310194 0.98994
rclavicle 9.93923e-016 -4.57205e-015
rhumerus -27.1659 -19.7375 -78.1342
rradius 22.9681
rwrist 35.7204
rhand -21.6856 -27.7794
rfingers 7.12502
rthumb 4.7124 -57.707
lclavicle 9.93923e-016 -4.57205e-015
lhumerus -25.5174 -0.999058 87.8299
lradius 23.645
lwrist 7.50029
lhand -25.8125 -5.28783
lfingers 7.12502
lthumb 0.726827 24.6907
rfemur -12.1786 -2.49752 19.9062
rtibia 19.1291
rfoot -12.9683 1.68474
rtoes 20.3404
lfemur -10.4281 6.61049 -17.407
ltibia 16.6962
lfoot -9.49822 8.9071
ltoes 1.66436
592
root 0.435546 17.7437 3.94746 7.99322 -1.24007 -1.93418
lowerback -4.91556 0.106652 0.411013
upperback 0.879073 0.0658638 1.41024
thorax 3.66243 0.0261688 1.2287
lowerneck -13.2686 -0.535655 -2.69302
upperneck 24.5305 -0.554818 1.72989
head 9.99465 -0.307826 0.995082
rclavicle 2.16178e-015 -5.96354e-015
rhumerus -27.1518 -19.7101 -78.1279
rradius 22.9668
rwrist 35.7112
rhand -21.6613 -27.7819
rfingers 7.12502
rthumb 4.73579 -57.709
lclavicle 2.16178e-015 -5.96354e-015
lhumerus -25.4868 -1.07726 87.8431
lradius 23.7025
lwrist 7.55541
lhand -25.8399 -5.30022
lfingers 7.12502
lthumb 0.700373 24.6784
rfemur -12.1812 -2.48873 19.9016
rtibia 19.1329
rfoot -12.9619 1.68009
rtoes 20.3461
lfemur -10.4272 6.60714 -17.4112
ltibia 16.6988
lfoot -9.49194 8.91485
ltoes 1.6695
593
root 0.435541 17.7437 3.94538 7.98401 -1.24876 -1.92795
lowerback -4.91101 0.110779 0.404935
upperback 0.868704 0.0719057 1.41173
thorax 3.64901 0.0290707 1.23406
lowerneck -13.2491 -0.533899 -2.70695
upperneck 24.4329 -0.551351 1.74026
head 9.95582 -0.305947 1.00084
rclavicle 5.14355e-015 6.36111e-015
rhumerus -27.1404 -19.6844 -78.1224
rradius 22.9691
rwrist 35.7019
rhand -21.6397 -27.7792
rfingers 7.12502
rthumb 4.75669 -57.7058
lclavicle 5.14355e-015 6.36111e-015
lhumerus -25.4567 -1.15723 87.8564
lradius 23.7513
lwrist 7.6036
lhand -25.8682 -5.33506
lfingers 7.12502
lthumb 0.673005 24.6436
rfemur -12.1834 -2.48545 19.8944
rtibia 19.1389
rfoot -12.9572 1.6821
rtoes 20.3489
lfemur -10.4235 6.60436 -17.4183
ltibia 16.6997
lfoot -9.48477 8.92378
ltoes 1.67212
594
root 0.435504 17.7437 3.94342 7.9744 -1.25746 -1.92236
lowerback -4.90664 0.115022 0.399491
upperback 0.85838 0.0780719 1.41283
thorax 3.63574 0.0320532 1.23867
lowerneck -13.2283 -0.534938 -2.72059
upperneck 24.3361 -0.551959 1.7507
head 9.91723 -0.305924 1.00606
rclavicle -3.67752e-015 -1.98785e-015
rhumerus -27.1365 -19.6539 -78.1167
rradius 22.9789
rwrist 35.6886
rhand -21.6167 -27.7742
rfingers 7.12502
rthumb 4.77889 -57.7003
lclavicle -3.67752e-015 -1.98785e-015
lhumerus -25.4308 -1.2338 87.869
lradius 23.7921
lwrist 7.64338
lhand -25.8981 -5.40351
lfingers 7.12502
lthumb 0.644141 24.5753
rfemur -12.1851 -2.48202 19.8879
rtibia 19.1463
rfoot -12.9534 1.68465
rtoes 20.3505
lfemur -10.418 6.60133 -17.4245
ltibia 16.6989
lfoot -9.47628 8.93399
ltoes 1.67045
595
root 0.435402 17.7437 3.94156 7.96279 -1.2656 -1.9205
lowerback -4.90113 0.119315 0.397462
upperback 0.849575 0.0840704 1.41432
thorax 3.62342 0.0350164 1.24175
lowerneck -13.2106 -0.537682 -2.73102
upperneck 24.2417 -0.555073 1.7588
head 9.88021 -0.307033 1.00963
rclavicle 2.68359e-015 -5.36719e-015
rhumerus -27.1361 -19.6207 -78.1119
rradius 22.9916
rwrist 35.6733
rhand -21.6048 -27.7569
rfingers 7.12502
rthumb 4.79033 -57.6828
lclavicle 2.68359e-015 -5.36719e-015
lhumerus -25.4066 -1.30522 87.8801
lradius 23.8241
lwrist 7.67789
lhand -25.9203 -5.47965
lfingers 7.12502
lthumb 0.622685 24.4992
rfemur -12.1841 -2.47419 19.8857
rtibia 19.1534
rfoot -12.9509 1.68448
rtoes 20.3517
lfemur -10.4104 6.5992 -17.426
ltibia 16.6982
lfoot -9.46829 8.94375
ltoes 1.67331
596
root 0.435212 17.7437 3.93973 7.9506 -1.27348 -1.91742
lowerback -4.89471 0.123436 0.392872
upperback 0.840462 0.0900259 1.41549
thorax 3.61025 0.0379112 1.24594
lowerneck -13.1981 -0.541568 -2.7348
upperneck 24.1531 -0.559724 1.76074
head 9.84631 -0.308954 1.00977
rclavicle 5.96354e-016 -1.23246e-014
rhumerus -27.1404 -19.5866 -78.1056
rradius 23.007
rwrist 35.6536
rhand -21.5977 -27.7353
rfingers 7.12502
rthumb 4.79723 -57.661
lclavicle 5.96354e-016 -1.23246e-014
lhumerus -25.3853 -1.36523 87.8894
lradius 23.8458
lwrist 7.70353
lhand -25.9303 -5.54651
lfingers 7.12502
lthumb 0.613111 24.4324
rfemur -12.182 -2.46392 19.8824
rtibia 19.1598
rfoot -12.9485 1.68196
rtoes 20.3523
lfemur -10.4026 6.59794 -17.4284
ltibia 16.698
lfoot -9.46158 8.95262
ltoes 1.67471
597
root 0.435009 17.7436 3.93793 7.93771 -1.2787 -1.91715
lowerback -4.8854 0.126365 0.390997
upperback 0.82873 0.094267 1.41752
thorax 3.59278 0.0400144 1.24931
lowerneck -13.1827 -0.545328 -2.73745
upperneck 24.0691 -0.564453 1.76212
head 9.81352 -0.310909 1.00954
rclavicle 7.95139e-016 -2.98177e-015
rhumerus -27.1529 -19.5484 -78.0966
rradius 23.0225
rwrist 35.6308
rhand -21.5983 -27.7095
rfingers 7.12502
rthumb 4.79662 -57.6352
lclavicle 7.95139e-016 -2.98177e-015
lhumerus -25.3741 -1.41273 87.896
lradius 23.8618
lwrist 7.72431
lhand -25.9305 -5.59576
lfingers 7.12502
lthumb 0.612836 24.3831
rfemur -12.178 -2.45536 19.8824
rtibia 19.1656
rfoot -12.9472 1.67886
rtoes 20.3599
lfemur -10.395 6.59864 -17.4273
ltibia 16.6991
lfoot -9.45691 8.95678
ltoes 1.6761
